# Made using Asset Forge (www.assetforge.io) version 1.3 

mtllib 6.0.model.mtl 

v -2.5 -1.127987E-17 0
v -2.5 1.371831 0
v -2.5 -1.127987E-17 1.5
v -2.5 1.174958 1.005
v 0.5 -1.127987E-17 0
v 0.5 1.371831 0
v 0.5 1.174958 1.005
v 0.5 -1.127987E-17 1.5
v 0.6500001 1.371831 0
v 0.6500001 1.174958 1.005
v -2.65 -0.0382119 1.602121
v 0.6500001 -0.08718652 1.536731
v 0.6500001 -0.0382119 1.602121
v -2.65 -0.08718652 1.536731
v -2.65 1.174958 1.005
v -2.65 1.371831 0
v -2.65 1.470769 0
v -2.65 1.248914 1.043146
v 0.6500001 1.248914 1.043146
v 0.6500001 1.470769 0
vn -3 0 0
vn 0 0 -1.5
vn 3 0 0
vn 0 -2 0
vn 0 0 1.5
vn 0 2 0
vn 0 1.978758 0.2180402
vn 0 1.74373 -0.7346196
vn 0 0.9794923 1.307798
vn 0 0.9794921 1.307798
vn 0 -1.978758 -0.2180402
vn 0 -1.74373 0.7346196
vn 0 -0.9794921 -1.307798
vn 0 -0.9794923 -1.307798
vn 0 1.002195 1.298086
vn 0 1.975032 0.236277
vt 0 -1.127987E-17
vt 0 1.371831
vt 1.5 -1.127987E-17
vt 1.005 1.174958
vt 2.5 -1.127987E-17
vt -0.5 -1.127987E-17
vt 2.5 1.371831
vt -0.5 1.371831
vt -1.005 1.174958
vt -1.5 -1.127987E-17
vt -0.5 -1.5
vt -0.5 0
vt 2.5 -1.5
vt 2.5 0
vt -2.5 1.371831
vt 0.5 -1.127987E-17
vt -2.5 -1.127987E-17
vt 0.5 1.371831
vt 2.5 1.5
vt -0.5 1.5
vt -0.5 1.005
vt -0.65 0
vt -0.65 1.005
vt 2.65 1.602121
vt -0.65 1.536731
vt -0.65 1.602121
vt 2.65 1.536731
vt 0.65 -0.08718652
vt 0.65 1.174958
vt 0.5 1.174958
vt -2.65 -0.08718652
vt -2.65 1.174958
vt -2.5 1.174958
vt -0.65 -1.005
vt -0.5 -1.005
vt 2.5 -1.005
vt 2.65 -1.005
vt 2.65 0
vt -0.65 -1.602121
vt -0.65 -1.536731
vt 2.65 -1.602121
vt 2.65 -1.536731
vt -0.65 1.174958
vt -0.65 -0.08718652
vt -0.5 1.174958
vt 2.65 -0.08718652
vt 2.65 1.174958
vt 2.5 1.174958
vt 0 1.470769
vt 1.043146 1.248914
vt 1.536731 -0.08718652
vt 1.602121 -0.0382119
vt 0.65 -0.0382119
vt -2.65 -0.0382119
vt 0.65 1.248914
vt -2.65 1.248914
vt 2.65 1.371831
vt 2.65 1.470769
vt -0.65 1.371831
vt -0.65 1.470769
vt -1.043146 1.248914
vt -1.536731 -0.08718652
vt -1.602121 -0.0382119
vt -0.65 1.043146
vt 2.65 1.043146

usemtl bricks (Instance)
usemap bricks (Instance)
f 3/3/1 2/2/1 1/1/1
f 2/2/1 3/3/1 4/4/1
f 2/7/2 5/6/2 1/5/2
f 5/6/2 2/7/2 6/8/2
f 7/9/3 5/1/3 6/2/3
f 5/1/3 7/9/3 8/10/3
f 3/13/4 5/12/4 8/11/4
f 5/12/4 3/13/4 1/14/4

usemtl border (Instance)
usemap border (Instance)
f 1/1/3 2/2/3 3/10/3
f 4/9/3 3/10/3 2/2/3
f 1/17/5 5/16/5 2/15/5
f 6/18/5 2/15/5 5/16/5
f 6/2/1 5/1/1 7/4/1
f 8/3/1 7/4/1 5/1/1
f 8/20/6 5/12/6 3/19/6
f 1/14/6 3/19/6 5/12/6
f 10/23/7 9/22/7 7/21/7
f 6/12/7 7/21/7 9/22/7
f 13/26/8 12/25/8 11/24/8
f 14/27/8 11/24/8 12/25/8
f 10/29/10 8/16/9 12/28/9
f 3/17/9 12/28/9 8/16/9
f 7/30/10 8/16/9 10/29/10
f 12/28/9 3/17/9 14/31/9
f 15/32/10 14/31/9 3/17/9
f 4/33/10 15/32/10 3/17/9

usemtl roofJade (Instance)
usemap roofJade (Instance)
f 7/35/11 9/22/11 10/34/11
f 9/22/11 7/35/11 6/12/11
f 15/37/11 2/14/11 4/36/11
f 2/14/11 15/37/11 16/38/11
f 11/41/12 12/40/12 13/39/12
f 12/40/12 11/41/12 14/42/12
f 12/44/14 8/6/14 10/43/13
f 8/6/14 12/44/14 3/5/14
f 10/43/13 8/6/14 7/45/13
f 14/46/14 3/5/14 12/44/14
f 3/5/14 14/46/14 15/47/13
f 3/5/14 15/47/13 4/48/13
f 15/4/1 17/49/1 16/2/1
f 17/49/1 15/4/1 18/50/1
f 18/50/1 15/4/1 14/51/1
f 18/50/1 14/51/1 11/52/1
f 19/55/15 11/54/15 13/53/15
f 11/54/15 19/55/15 18/56/15
f 17/58/2 2/7/2 16/57/2
f 2/7/2 17/58/2 6/8/2
f 6/8/2 17/58/2 9/59/2
f 9/59/2 17/58/2 20/60/2
f 19/61/3 9/2/3 20/49/3
f 9/2/3 19/61/3 10/9/3
f 10/9/3 19/61/3 12/62/3
f 12/62/3 19/61/3 13/63/3
f 17/38/16 19/64/16 20/22/16
f 19/64/16 17/38/16 18/65/16
v 0.4999999 -1.127987E-17 1.192093E-07
v 0.4999999 1.371831 1.192093E-07
v 0.5000001 -1.127987E-17 -1.5
v 0.5 1.174958 -1.005
v -2.5 -1.127987E-17 -1.192093E-07
v -2.5 1.371831 -1.192093E-07
v -2.5 1.174958 -1.005
v -2.5 -1.127987E-17 -1.5
v -2.65 1.371831 -1.192093E-07
v -2.65 1.174958 -1.005
v 0.6500002 -0.0382119 -1.602121
v -2.65 -0.08718652 -1.536731
v -2.65 -0.0382119 -1.602121
v 0.6500002 -0.08718652 -1.536731
v 0.6500001 1.174958 -1.005
v 0.65 1.371831 1.192093E-07
v 0.65 1.470769 1.192093E-07
v 0.6500001 1.248914 -1.043146
v -2.65 1.248914 -1.043146
v -2.65 1.470769 -1.192093E-07
vn 3 0 2.622683E-07
vn -1.311342E-07 0 1.5
vn -3 0 -2.622683E-07
vn 1.311342E-07 0 -1.5
vn 1.906168E-08 1.978758 -0.2180402
vn -6.422248E-08 1.74373 0.7346196
vn 1.143313E-07 0.9794923 -1.307798
vn 1.143313E-07 0.9794921 -1.307798
vn -1.906168E-08 -1.978758 0.2180402
vn 6.422248E-08 -1.74373 -0.7346196
vn -1.143313E-07 -0.9794921 1.307798
vn -1.143313E-07 -0.9794923 1.307798
vn 1.134823E-07 1.002195 -1.298086
vn 2.065599E-08 1.975032 -0.236277
vt -1.311342E-07 -1.127987E-17
vt -1.311342E-07 1.371831
vt 1.5 -1.127987E-17
vt 1.005 1.174958
vt 0.4999999 -1.127987E-17
vt 0.4999999 1.371831
vt -1.005 1.174958
vt -1.5 -1.127987E-17
vt 2.5 1.5
vt 2.5 1.311342E-07
vt -0.5000001 1.5
vt -0.4999999 -1.311342E-07
vt -1.5 -1.127987E-17
vt 1.311342E-07 1.371831
vt 1.311342E-07 -1.127987E-17
vt -1.005 1.174958
vt -0.4999999 1.371831
vt -0.4999999 -1.127987E-17
vt 1.005 1.174958
vt 1.5 -1.127987E-17
vt -0.5000001 -1.5
vt 2.5 -1.311342E-07
vt 2.5 -1.5
vt -0.4999999 1.311342E-07
vt 2.5 -1.005
vt 2.65 -1.442476E-07
vt 2.65 -1.005
vt -0.6500001 -1.602121
vt 2.65 -1.536731
vt 2.65 -1.602121
vt -0.6500001 -1.536731
vt 2.65 -0.08718652
vt -0.5000001 -1.127987E-17
vt -0.6500001 -0.08718652
vt 2.65 1.005
vt 2.65 1.442476E-07
vt 2.5 1.005
vt -0.5 1.005
vt -0.65 1.005
vt -0.65 -1.442476E-07
vt 2.65 1.602121
vt 2.65 1.536731
vt -0.6500001 1.602121
vt -0.6500001 1.536731
vt -2.65 -0.08718652
vt 0.5000001 -1.127987E-17
vt 0.6500001 -0.08718652
vt -1.442476E-07 1.371831
vt -1.442476E-07 1.470769
vt 1.043146 1.248914
vt 1.536731 -0.08718652
vt 1.602121 -0.0382119
vt 2.65 -0.0382119
vt -0.6500001 -0.0382119
vt 2.65 1.248914
vt -0.65 1.248914
vt 0.65 1.371831
vt 0.65 1.470769
vt -2.65 1.371831
vt -2.65 1.470769
vt -1.043146 1.248914
vt -1.536731 -0.08718652
vt -1.602121 -0.0382119
vt 2.65 -1.043146
vt -0.65 1.442476E-07
vt -0.65 -1.043146

usemtl bricks (Instance)
usemap bricks (Instance)
f 23/68/17 22/67/17 21/66/17
f 22/67/17 23/68/17 24/69/17
f 22/71/18 25/17/18 21/70/18
f 25/17/18 22/71/18 26/15/18
f 27/72/19 25/66/19 26/67/19
f 25/66/19 27/72/19 28/73/19
f 23/76/4 25/75/4 28/74/4
f 25/75/4 23/76/4 21/77/4

usemtl border (Instance)
usemap border (Instance)
f 21/80/19 22/79/19 23/78/19
f 24/81/19 23/78/19 22/79/19
f 21/83/20 25/5/20 22/82/20
f 26/7/20 22/82/20 25/5/20
f 26/79/17 25/80/17 27/84/17
f 28/85/17 27/84/17 25/80/17
f 28/88/6 25/87/6 23/86/6
f 21/89/6 23/86/6 25/87/6
f 30/92/21 29/91/21 27/90/21
f 26/87/21 27/90/21 29/91/21
f 33/95/22 32/94/22 31/93/22
f 34/96/22 31/93/22 32/94/22
f 30/47/24 28/5/23 32/97/23
f 23/98/23 32/97/23 28/5/23
f 27/48/24 28/5/23 30/47/24
f 32/97/23 23/98/23 34/99/23
f 35/43/24 34/99/23 23/98/23
f 24/45/24 35/43/24 23/98/23

usemtl roofJade (Instance)
usemap roofJade (Instance)
f 27/102/25 29/101/25 30/100/25
f 29/101/25 27/102/25 26/75/25
f 35/104/25 22/77/25 24/103/25
f 22/77/25 35/104/25 36/105/25
f 31/108/26 32/107/26 33/106/26
f 32/107/26 31/108/26 34/109/26
f 32/110/28 28/17/28 30/32/27
f 28/17/28 32/110/28 23/111/28
f 30/32/27 28/17/28 27/33/27
f 34/112/28 23/111/28 32/110/28
f 23/111/28 34/112/28 35/29/27
f 23/111/28 35/29/27 24/30/27
f 35/69/17 37/114/17 36/113/17
f 37/114/17 35/69/17 38/115/17
f 38/115/17 35/69/17 34/116/17
f 38/115/17 34/116/17 31/117/17
f 39/120/29 31/119/29 33/118/29
f 31/119/29 39/120/29 38/121/29
f 37/123/18 22/71/18 36/122/18
f 22/71/18 37/123/18 26/15/18
f 26/15/18 37/123/18 29/124/18
f 29/124/18 37/123/18 40/125/18
f 39/126/19 29/113/19 40/114/19
f 29/113/19 39/126/19 30/72/19
f 30/72/19 39/126/19 32/127/19
f 32/127/19 39/126/19 33/128/19
f 37/130/30 39/129/30 40/91/30
f 39/129/30 37/130/30 38/131/30
v 0.53 4.060752E-17 -0.8495149
v 0.51 4.060752E-17 -0.8495149
v 0.53 0.8433477 -0.8495149
v 0.51 0.8433477 -0.8495149
v 0.5 4.060752E-17 -0.9575076
v 0.53 4.060752E-17 -0.9575076
v 0.5 0.9513478 -0.9575076
v 0.53 0.9513478 -0.9575076
v 0.53 0.9513478 0.8575075
v 0.5 0.9513478 0.8575075
v 0.53 4.060752E-17 0.8575075
v 0.53 4.060752E-17 0.7495149
v 0.5 4.060752E-17 0.8575075
v 0.51 4.060752E-17 0.7495149
v 0.53 0.8433477 0.7495149
v 0.51 0.8433477 0.7495149
vn 0 0 2.5
vn 0 0 -2.5
vn 0 1.8 0
vn 0 -1.8 0
vn 1 0 0
vt 0.53 4.060752E-17
vt 0.51 4.060752E-17
vt 0.53 0.8433477
vt 0.51 0.8433477
vt -0.5 4.060752E-17
vt -0.53 4.060752E-17
vt -0.5 0.9513478
vt -0.53 0.9513478
vt -0.53 -0.9575076
vt -0.53 0.8575075
vt -0.5 -0.9575076
vt -0.5 0.8575075
vt -0.53 -0.8575075
vt -0.53 -0.7495149
vt -0.5 -0.8575075
vt -0.51 -0.7495149
vt -0.51 0.8495149
vt -0.5 0.9575076
vt -0.53 0.9575076
vt -0.53 0.8495149
vt -0.51 4.060752E-17
vt -0.51 0.8433477
vt -0.53 0.8433477
vt 0.9575076 4.060752E-17
vt 0.8495149 0.8433477
vt 0.9575076 0.9513478
vt -0.8575075 0.9513478
vt -0.7495149 0.8433477
vt -0.7495149 4.060752E-17
vt -0.8575075 4.060752E-17
vt 0.8495149 4.060752E-17
vt 0.5 4.060752E-17
vt 0.53 0.9513478
vt 0.5 0.9513478

usemtl element (Instance)
usemap element (Instance)
f 43/134/31 42/133/31 41/132/31
f 42/133/31 43/134/31 44/135/31
f 47/138/32 46/137/32 45/136/32
f 46/137/32 47/138/32 48/139/32
f 47/142/33 49/141/33 48/140/33
f 49/141/33 47/142/33 50/143/33
f 53/146/34 52/145/34 51/144/34
f 52/145/34 53/146/34 54/147/34
f 54/147/34 53/146/34 42/148/34
f 45/149/34 42/148/34 53/146/34
f 46/150/34 42/148/34 45/149/34
f 42/148/34 46/150/34 41/151/34
f 56/147/34 43/151/34 55/145/34
f 43/151/34 56/147/34 44/148/34
f 56/153/32 52/137/32 54/152/32
f 52/137/32 56/153/32 55/154/32
f 48/157/35 43/156/35 46/155/35
f 43/156/35 48/157/35 49/158/35
f 43/156/35 49/158/35 55/159/35
f 55/159/35 49/158/35 52/160/35
f 52/160/35 49/158/35 51/161/35
f 41/162/35 46/155/35 43/156/35
f 49/164/31 53/163/31 51/132/31
f 53/163/31 49/164/31 50/165/31

usemtl glass (Instance)
usemap glass (Instance)
f 56/159/35 42/162/35 44/156/35
f 42/162/35 56/159/35 54/160/35
v -2.519 0.4685265 -0.680194
v -2.519 9.023893E-17 -0.680194
v -2.519 0.4685265 -0.9198059
v -2.519 9.023893E-17 -0.9198059
v -2.519 0.5285265 -0.680194
v -2.519 0.5285265 -0.9198059
v -2.519 0.5595346 -0.6842763
v -2.519 0.5884295 -0.696245
v -2.519 0.6132421 -0.7152843
v -2.519 0.6322815 -0.7400969
v -2.519 0.6442502 -0.7689919
v -2.519 0.6483325 -0.8
v -2.519 0.6442502 -0.831008
v -2.519 0.6322815 -0.8599029
v -2.519 0.6132421 -0.8847156
v -2.519 0.5884295 -0.9037549
v -2.519 0.5595346 -0.9157236
v -2.5 4.511946E-17 -0.6369969
v -2.557 4.511946E-17 -0.6369969
v -2.5 0.5285265 -0.6369969
v -2.557 0.5285265 -0.6369969
v -2.557 4.511946E-17 -0.9630029
v -2.5 4.511946E-17 -0.9630029
v -2.557 0.5285265 -0.9630029
v -2.5 0.5285265 -0.9630029
v -2.557 9.023893E-17 -0.9198059
v -2.557 9.023893E-17 -0.680194
v -2.538 0.5285265 -0.680194
v -2.538 0.4685265 -0.680194
v -2.538 0.5285265 -0.9198059
v -2.538 0.4685265 -0.9198059
v -2.557 0.5285265 -0.9198059
v -2.557 0.5285265 -0.680194
v -2.557 0.6100281 -0.6588352
v -2.557 0.6437871 -0.6847394
v -2.557 0.5595346 -0.6842763
v -2.557 0.5884295 -0.696245
v -2.557 0.6696913 -0.7184984
v -2.557 0.6132421 -0.7152843
v -2.557 0.6322815 -0.740097
v -2.557 0.6859754 -0.7578117
v -2.557 0.6442502 -0.7689919
v -2.557 0.6915296 -0.8
v -2.557 0.6483325 -0.8
v -2.557 0.6859754 -0.8421882
v -2.557 0.6442502 -0.831008
v -2.557 0.6322815 -0.8599029
v -2.557 0.6696913 -0.8815014
v -2.557 0.6132421 -0.8847156
v -2.557 0.6437871 -0.9152605
v -2.557 0.5884295 -0.9037549
v -2.557 0.5595346 -0.9157236
v -2.557 0.6100281 -0.9411647
v -2.557 0.5707148 -0.9574487
v -2.557 0.5707148 -0.6425511
v -2.5 0.5707148 -0.6425511
v -2.5 0.6100281 -0.6588352
v -2.5 0.6437871 -0.6847394
v -2.5 0.6696913 -0.7184984
v -2.5 0.6859754 -0.7578117
v -2.5 0.6915296 -0.8
v -2.5 0.6859754 -0.8421882
v -2.5 0.6696913 -0.8815014
v -2.5 0.6437871 -0.9152605
v -2.5 0.6100281 -0.9411647
v -2.5 0.5707148 -0.9574487
vn -1.9 0 -1.661033E-07
vn -8.742278E-08 0 1
vn -8.733967E-08 0.04359169 0.9990494
vn -8.708989E-08 0.08718338 0.9961922
vn 8.742278E-08 0 -1
vn 8.733967E-08 0.04359169 -0.9990494
vn 8.708989E-08 0.08718338 -0.9961922
vn 0 -1 0
vn -8.72356E-08 -0.06540301 0.9978589
vn -8.70899E-08 -0.0871832 0.9961923
vn 8.737607E-08 -0.03268401 -0.9994658
vn 8.708989E-08 -0.08718335 -0.9961922
vn 0 1 0
vn -8.667487E-08 -0.1305259 0.9914449
vn -8.574777E-08 -0.1948141 0.9808401
vn -8.337071E-08 -0.3009185 0.9536498
vn -7.755393E-08 -0.4615512 0.8871136
vn -7.372115E-08 -0.5374874 0.8432717
vn -6.181724E-08 -0.7071068 0.7071068
vn -6.181724E-08 -0.7071068 0.7071068
vn -4.698863E-08 -0.8432719 0.5374873
vn -4.035005E-08 -0.8871139 0.4615507
vn -2.262669E-08 -0.9659258 0.2588191
vn 1.890276E-08 -0.9763441 -0.2162224
vn 2.630711E-08 -0.9536499 -0.3009182
vn 4.035005E-08 -0.8871139 -0.4615507
vn 4.698862E-08 -0.8432719 -0.5374872
vn 6.181724E-08 -0.7071067 -0.7071068
vn 7.755395E-08 -0.4615508 -0.8871137
vn 7.372117E-08 -0.5374872 -0.8432719
vn 8.574777E-08 -0.1948141 -0.9808401
vn 8.337073E-08 -0.3009182 -0.9536499
vn 8.667487E-08 -0.1305262 -0.9914449
vn -8.535472E-08 0.216222 0.9763442
vn -8.337073E-08 0.3009182 0.9536499
vn -7.755396E-08 0.4615508 0.8871139
vn -7.372116E-08 0.5374873 0.8432718
vn -6.181722E-08 0.7071069 0.7071066
vn -4.698862E-08 0.8432719 0.5374872
vn -4.035007E-08 0.8871137 0.461551
vn -2.630714E-08 0.9536498 0.3009187
vn -1.890277E-08 0.9763441 0.2162225
vn -3.832801E-09 0.9990385 0.04384214
vn 3.832803E-09 0.9990385 -0.04384215
vn 1.890277E-08 0.9763441 -0.2162225
vn 2.630714E-08 0.9536498 -0.3009186
vn 4.035007E-08 0.8871137 -0.461551
vn 4.698862E-08 0.8432719 -0.5374872
vn 6.181722E-08 0.7071069 -0.7071066
vn 7.755396E-08 0.4615508 -0.8871139
vn 7.372116E-08 0.5374873 -0.8432718
vn 8.535472E-08 0.216222 -0.9763442
vn 8.337073E-08 0.3009182 -0.9536499
vt -0.680194 0.4685265
vt -0.680194 9.023893E-17
vt -0.9198059 0.4685265
vt -0.9198059 9.023893E-17
vt -0.680194 0.5285265
vt -0.9198059 0.5285265
vt -0.6842763 0.5595346
vt -0.696245 0.5884295
vt -0.7152843 0.6132421
vt -0.740097 0.6322815
vt -0.7689919 0.6442502
vt -0.8 0.6483325
vt -0.831008 0.6442502
vt -0.8599029 0.6322815
vt -0.8847156 0.6132421
vt -0.9037549 0.5884295
vt -0.9157236 0.5595346
vt -2.5 4.511946E-17
vt -2.557 4.511946E-17
vt -2.5 0.5285265
vt -2.557 0.5285265
vt 2.557 4.511946E-17
vt 2.5 4.511946E-17
vt 2.557 0.5285265
vt 2.5 0.5285265
vt 2.557 0.9630029
vt 2.557 0.9198059
vt 2.5 0.9630029
vt 2.519 0.9198059
vt 2.519 0.680194
vt 2.5 0.6369969
vt 2.557 0.6369969
vt 2.557 0.680194
vt -2.519 9.023893E-17
vt -2.557 9.023893E-17
vt -2.519 0.4685265
vt -2.538 0.4685265
vt -2.538 0.5285265
vt 2.538 0.9198059
vt 2.538 0.680194
vt 2.557 9.023893E-17
vt 2.519 9.023893E-17
vt 2.538 0.4685265
vt 2.538 0.5285265
vt 2.519 0.4685265
vt 2.538 -0.680194
vt 2.538 -0.9198059
vt 2.519 -0.680194
vt 2.519 -0.9198059
vt -0.6588352 0.6100281
vt -0.6847394 0.6437871
vt -0.7184984 0.6696913
vt -0.7578117 0.6859754
vt -0.8 0.6915296
vt -0.8421882 0.6859754
vt -0.8815014 0.6696913
vt -0.9152605 0.6437871
vt -0.9411647 0.6100281
vt -0.9630029 4.511946E-17
vt -0.9574487 0.5707148
vt -0.9630029 0.5285265
vt -0.6369969 0.5285265
vt -0.6369969 4.511946E-17
vt -0.6425511 0.5707148
vt -2.519 0.5285265
vt -2.519 0.5595346
vt -2.557 0.5595346
vt -2.519 0.5884295
vt -2.557 0.5884295
vt -2.519 0.6132421
vt -2.557 0.6132421
vt 2.557 0.8847156
vt 2.557 0.8599029
vt 2.519 0.8847156
vt 2.519 0.8599029
vt 2.557 0.831008
vt 2.519 0.831008
vt 2.557 0.8
vt 2.519 0.8
vt 2.557 0.7689919
vt 2.519 0.7689919
vt 2.557 0.740097
vt 2.519 0.740097
vt 2.557 0.7152843
vt 2.519 0.7152843
vt 2.557 0.5884295
vt 2.519 0.5884295
vt 2.557 0.6132421
vt 2.519 0.6132421
vt 2.557 0.5595346
vt 2.519 0.5595346
vt 2.519 0.5285265
vt -2.5 0.5707148
vt -2.557 0.5707148
vt -2.5 0.6100281
vt -2.557 0.6100281
vt -2.5 0.6437871
vt -2.557 0.6437871
vt 2.557 -0.6847394
vt 2.557 -0.7184984
vt 2.5 -0.6847394
vt 2.5 -0.7184984
vt 2.557 -0.7578117
vt 2.5 -0.7578117
vt 2.557 -0.8
vt 2.5 -0.8
vt 2.557 -0.8421882
vt 2.5 -0.8421882
vt 2.557 -0.8815014
vt 2.5 -0.8815014
vt 2.557 -0.9152605
vt 2.5 -0.9152605
vt 2.557 0.6100281
vt 2.5 0.6100281
vt 2.557 0.6437871
vt 2.5 0.6437871
vt 2.557 0.5707148
vt 2.5 0.5707148

usemtl glass (Instance)
usemap glass (Instance)
f 59/168/36 58/167/36 57/166/36
f 58/167/36 59/168/36 60/169/36
f 63/172/36 62/171/36 61/170/36
f 62/171/36 63/172/36 64/173/36
f 62/171/36 64/173/36 65/174/36
f 62/171/36 65/174/36 66/175/36
f 62/171/36 66/175/36 67/176/36
f 62/171/36 67/176/36 68/177/36
f 62/171/36 68/177/36 69/178/36
f 62/171/36 69/178/36 70/179/36
f 62/171/36 70/179/36 71/180/36
f 62/171/36 71/180/36 72/181/36
f 62/171/36 72/181/36 73/182/36

usemtl element (Instance)
usemap element (Instance)
f 76/185/38 75/184/37 74/183/37
f 75/184/37 76/185/38 77/186/39
f 80/189/41 79/188/40 78/187/40
f 79/188/40 80/189/41 81/190/42
f 79/193/43 82/192/43 78/191/43
f 82/192/43 79/193/43 60/194/43
f 60/194/43 79/193/43 58/195/43
f 74/196/43 58/195/43 79/193/43
f 75/197/43 58/195/43 74/196/43
f 58/195/43 75/197/43 83/198/43
f 86/171/36 85/166/36 84/170/36
f 85/166/36 86/171/36 87/168/36
f 59/201/37 82/200/37 60/199/37
f 82/200/37 59/201/37 87/202/37
f 82/200/37 87/202/37 88/186/44
f 88/186/44 87/202/37 86/203/45
f 59/194/43 85/205/43 87/204/43
f 85/205/43 59/194/43 57/195/43
f 89/189/46 58/207/40 83/206/40
f 58/207/40 89/189/46 85/208/40
f 85/208/40 89/189/46 84/209/47
f 57/210/40 58/207/40 85/208/40
f 61/213/48 86/212/48 84/211/48
f 86/212/48 61/213/48 62/214/48
f 91/216/36 89/170/36 90/215/36
f 89/170/36 91/216/36 92/172/36
f 92/172/36 91/216/36 93/173/36
f 93/173/36 91/216/36 94/217/36
f 93/173/36 94/217/36 95/174/36
f 95/174/36 94/217/36 96/175/36
f 96/175/36 94/217/36 97/218/36
f 96/175/36 97/218/36 98/176/36
f 98/176/36 97/218/36 99/219/36
f 98/176/36 99/219/36 100/177/36
f 100/177/36 99/219/36 101/220/36
f 100/177/36 101/220/36 102/178/36
f 102/178/36 101/220/36 103/179/36
f 103/179/36 101/220/36 104/221/36
f 103/179/36 104/221/36 105/180/36
f 105/180/36 104/221/36 106/222/36
f 105/180/36 106/222/36 107/181/36
f 107/181/36 106/222/36 108/182/36
f 108/182/36 106/222/36 109/223/36
f 108/182/36 109/223/36 88/171/36
f 88/171/36 109/223/36 82/169/36
f 82/169/36 109/223/36 78/224/36
f 78/224/36 109/223/36 110/225/36
f 78/224/36 110/225/36 80/226/36
f 111/229/36 75/228/36 77/227/36
f 75/228/36 111/229/36 83/167/36
f 83/167/36 111/229/36 90/215/36
f 83/167/36 90/215/36 89/170/36
f 73/231/50 86/203/45 62/230/49
f 86/203/45 73/231/50 88/186/44
f 88/186/44 73/231/50 108/232/51
f 72/233/52 108/232/51 73/231/50
f 108/232/51 72/233/52 107/234/53
f 71/235/54 107/234/53 72/233/52
f 107/234/53 71/235/54 105/236/55
f 71/239/54 103/238/56 105/237/55
f 103/238/56 71/239/54 70/240/57
f 70/240/57 102/241/58 103/238/56
f 102/241/58 70/240/57 69/242/58
f 102/241/58 68/244/43 100/243/43
f 68/244/43 102/241/58 69/242/58
f 68/244/43 98/245/59 100/243/43
f 98/245/59 68/244/43 67/246/60
f 67/246/60 96/247/61 98/245/59
f 96/247/61 67/246/60 66/248/62
f 66/248/62 95/249/63 96/247/61
f 95/249/63 66/248/62 65/250/63
f 95/253/63 64/252/65 93/251/64
f 64/252/65 95/253/63 65/254/63
f 93/251/64 63/256/67 92/255/66
f 63/256/67 93/251/64 64/252/65
f 92/255/66 84/209/47 89/189/46
f 84/209/47 92/255/66 61/257/68
f 61/257/68 92/255/66 63/256/67
f 112/258/69 77/186/39 76/185/38
f 77/186/39 112/258/69 111/259/70
f 113/260/71 111/259/70 112/258/69
f 111/259/70 113/260/71 90/261/72
f 114/262/73 90/261/72 113/260/71
f 90/261/72 114/262/73 91/263/73
f 114/266/73 94/265/74 91/264/73
f 94/265/74 114/266/73 115/267/75
f 115/267/75 97/268/76 94/265/74
f 97/268/76 115/267/75 116/269/77
f 116/269/77 99/270/78 97/268/76
f 99/270/78 116/269/77 117/271/79
f 117/271/79 101/272/80 99/270/78
f 101/272/80 117/271/79 118/273/81
f 118/273/81 104/274/82 101/272/80
f 104/274/82 118/273/81 119/275/83
f 119/275/83 106/276/84 104/274/82
f 106/276/84 119/275/83 120/277/84
f 106/280/84 121/279/86 109/278/85
f 121/279/86 106/280/84 120/281/84
f 109/278/85 122/283/88 110/282/87
f 122/283/88 109/278/85 121/279/86
f 110/282/87 81/190/42 80/189/41
f 81/190/42 110/282/87 122/283/88
